<svg width="836" height="1217" viewBox="0 0 836 1217" fill="none" xmlns="http://www.w3.org/2000/svg">
<path d="M167.766 306C134.966 99.6 300.099 34.6667 386.766 28C549.966 41.2 612.432 144.167 623.266 194C648.866 313.6 573.932 402.167 533.266 431.5C781.666 512.3 816.099 670.833 802.266 740C845.466 782 825.266 825.833 809.766 842.5C769.766 890.9 700.099 862.667 670.266 842.5L615.266 850L644.766 1047L564.266 1067.5L583.266 1155.5C628.066 1151.1 659.932 1185.33 670.266 1203L450.266 1210.5V1067.5L427.266 1060V918L379.766 932V1060V1210.5C323.099 1211 204.366 1211.7 182.766 1210.5C161.166 1209.3 163.766 1200.67 167.766 1196.5L234.266 1143L250.766 1067.5L152.266 1060L182.766 700.5C147.966 710.9 124.932 704.833 117.766 700.5C0.165718 691.3 38.099 531 71.7657 452L145.766 470C114.166 399.2 147.266 331.167 167.766 306Z" fill="white"/>
<path d="M369.5 919C373.9 897.8 348.667 654.167 335.5 535C382.3 579 432 553.333 451 535L426 919C401.6 946.2 378.167 930.333 369.5 919Z" fill="#F4A937"/>
<path d="M155.801 478.19C130.773 437.845 103.542 346.821 198.851 285C215.036 289.19 238.496 288.166 230.887 319.448C247.906 311.379 295.761 309.766 318.988 319.448C331.836 327.983 347.62 351.29 340.012 394.862C329.666 406.966 304.171 430.8 272.935 440.483C272.935 450.103 270.132 481.634 238.896 501" stroke="black" stroke-width="20"/>
<path d="M170.755 307.266C164.409 287.543 161 266.641 161 245C161 125.154 265.542 28 394.5 28C523.458 28 628 125.154 628 245C628 364.846 523.458 462 394.5 462C354.929 462 317.658 452.852 285 436.708" stroke="black" stroke-width="20"/>
<path d="M449.559 115.014L323 10.8265L193.308 96.4704L10 115.014L151.087 196.477L242.735 118.793L449.559 115.014Z" stroke="#EB872D" stroke-width="20" stroke-linecap="round" stroke-linejoin="round"/>
<path d="M65.6099 450.887L264.13 513.719C263.816 549.736 247.06 636.431 182.553 695.075" stroke="black" stroke-width="20"/>
<path d="M73.6263 446.603C40.3038 514.988 -0.406166 660.802 103.334 696.978C120.152 701.897 158.976 708.783 179.724 696.978C169.664 814.709 150.111 1051.41 152.374 1056.36C154.638 1061.31 303.268 1067.94 374 1065.88" stroke="black" stroke-width="20"/>
<path d="M264 356C285.28 350.949 307.058 344.719 329 347.838" stroke="black" stroke-width="20" stroke-linecap="round"/>
<path d="M270 387C273.138 385.917 282.258 385.43 285.042 384.984C299.225 382.707 313.058 379.7 327.379 377.7C331.572 377.114 335.715 377 340 377" stroke="black" stroke-width="20" stroke-linecap="round"/>
<path d="M470.443 200.773L251.549 220.228C248.606 262.332 266.942 343.825 363.838 332.961C460.733 322.098 475.281 240.309 470.443 200.773ZM470.443 200.773L689.337 181.319C689.422 223.234 669.009 308.546 586.675 314.467C504.341 320.388 474.881 241.138 470.443 200.773Z" stroke="#EB872D" stroke-width="20" stroke-linecap="round" stroke-linejoin="round"/>
<path d="M425.176 254C428.233 271.025 431.356 255.639 429.382 255.282C425.791 254.632 420.915 258.263 423.955 261.285" stroke="black" stroke-width="20" stroke-linecap="round"/>
<path d="M530.388 247C531.241 248.191 533.296 252.054 533.898 248.968C534.356 246.616 533.215 246.853 531.636 247.698C530.099 248.521 529.034 251 531.324 251" stroke="black" stroke-width="20" stroke-linecap="round"/>
<path d="M450 335C450 337.836 457.687 341.208 459.758 342.189C470.879 347.463 482.795 347.408 494.909 346.596C503.367 346.029 512.051 343.078 516 335.522" stroke="black" stroke-width="20" stroke-linecap="round"/>
<path d="M314 462C290.595 476.957 267.73 492.264 245 508" stroke="black" stroke-width="20" stroke-linecap="round"/>
<path d="M329 459C347.171 605.844 383.404 942.423 378.558 1075" stroke="black" stroke-width="20"/>
<path d="M252.371 586L290.749 620.433L212 711.169L369 861" stroke="black" stroke-width="20"/>
<path d="M451.826 458C441.784 644.27 422.661 1025.63 426.503 1060.9C472.929 1070.5 592.059 1067.39 645.5 1044.37L615.5 841.835H671.004M671.004 841.835C710.444 870.611 798.93 901.243 826 794.029C826 750.401 774.043 698.883 693.707 737.87C673.623 750.401 640.616 796.907 671.004 841.835Z" stroke="black" stroke-width="20"/>
<path d="M582 606.883L588 649.16" stroke="black" stroke-width="20"/>
<path d="M710 780C689.141 791.471 679 812.381 679 837" stroke="black" stroke-width="20" stroke-linecap="round"/>
<path d="M730 815C719.076 828.201 709 848.032 709 866" stroke="black" stroke-width="20" stroke-linecap="round"/>
<path d="M525 428C624.574 451.518 821.623 548.872 799.244 739" stroke="black" stroke-width="20"/>
<path d="M466 455L596.5 531.657L514 618.534L560.5 646.874H492.5C485.333 677.537 475.3 758.932 492.5 839.212L629 842" stroke="black" stroke-width="20"/>
<path d="M525 646L761.721 648.328C766.049 671.138 773.407 718.807 768.214 727" stroke="black" stroke-width="20"/>
<path d="M494 694C555.139 694.633 616.258 695.233 677.38 696.909C682.103 697.038 686.828 696.992 691.551 696.992C696.737 696.992 701.922 696.966 707 696.244" stroke="black" stroke-width="20" stroke-linecap="round"/>
<path d="M511 743H685" stroke="black" stroke-width="20" stroke-linecap="round"/>
<path d="M488 789H653" stroke="black" stroke-width="20" stroke-linecap="round"/>
<path d="M335 517C335 524.206 344.933 529.377 349.928 533.802C357.942 540.901 369.673 549.696 381.275 550.603C394.448 551.633 408.96 550.921 420.916 545.314C426.827 542.542 432.303 535.583 438 533.802" stroke="black" stroke-width="20" stroke-linecap="round"/>
<path d="M377 927C397.03 927 409.481 926.05 427 917" stroke="black" stroke-width="20" stroke-linecap="round"/>
<path d="M445 1071.14L454.024 1202.31C522.54 1202.46 665.283 1205.47 671.103 1197.64C680.127 1185.5 618.964 1148.62 582.366 1143.96C578.356 1137.11 567.226 1095.97 562.814 1059" stroke="black" stroke-width="20"/>
<path d="M247.25 1068.99C246.248 1087.9 240.738 1129.17 226.711 1142.94C209.178 1160.15 134.035 1198.28 175.113 1204.33C207.975 1209.17 324.73 1206.34 379 1204.33V929" stroke="black" stroke-width="20"/>
<path d="M433 888L489 833" stroke="black" stroke-width="20"/>
</svg>
