<svg width="917" height="1145" viewBox="0 0 917 1145" fill="none" xmlns="http://www.w3.org/2000/svg">
<path d="M71.5 264.703C40.3 114.303 178.5 37.7032 251.5 18.2032C441.9 -6.99677 506.5 138.37 515 214.203C517.4 297.003 474.333 370.037 452.5 396.203C495.3 407.403 498.333 452.203 494.5 473.203C570.9 484.803 595.333 539.703 598 565.703L664 556.203C671.333 553.537 681.6 548.203 664 548.203C646.4 548.203 650.333 526.203 654.5 515.203C685.7 436.003 688.5 373.537 686 352.203L703 338.203C744.2 355.803 744.5 390.537 739.5 405.703C827.5 412.103 808.5 503.37 788 548.203L905.5 538.703L839.5 821.203L813 832.203C838.2 858.603 841.167 917.203 839.5 943.203L756.5 991.703L839.5 1020.2L813 1100.2C698.5 1163.2 599.5 1123.7 578 1122.2C560.8 1121 423.5 1107.04 357 1100.2C258.2 1126.6 171.5 1089.2 140.5 1067.2C51.7 1024.4 78.5 892.703 103 832.203C58.2 822.203 24.6666 775.703 13.5 753.703C-6.50003 531.703 77.1666 488.87 121.5 495.203L92 432.203C90.8 411.003 123.833 405.703 140.5 405.703C81.7 344.503 70 286.203 71.5 264.703Z" fill="white"/>
<path d="M163.5 976.703H188.5" stroke="black" stroke-width="20"/>
<path d="M335 790.203L473.5 733.703L444.5 898.203L259 817.203L335 790.203Z" fill="#495AF1"/>
<path d="M284 533.703C289.264 566.837 293.861 600.227 302.296 632.748C303.653 637.977 305.067 643.031 305.956 648.361C306.848 653.713 306.861 659.179 308.151 664.34" stroke="#3042E9" stroke-width="20" stroke-linecap="round"/>
<path d="M368.53 533.703C372.638 563.614 377.237 593.259 383.777 622.746C386.474 634.91 389.651 646.96 391.583 659.278C392.649 666.075 393.608 672.704 394.023 679.587C394.503 687.559 395.329 695.098 392.559 679.526C384.332 633.279 375.116 585.23 375.116 538.094" stroke="#3042E9" stroke-width="20" stroke-linecap="round"/>
<path d="M180 969.203C195.167 1017.87 296.3 1116.5 579.5 1121.7C623.5 1139.54 708.7 1145.6 819.5 1095.2L838 1023.7C832.667 1013.7 798.8 993.503 746 994.703" stroke="black" stroke-width="20"/>
<path d="M603 866.703C571.5 884.87 496.7 931.703 467.5 957.703" stroke="black" stroke-width="20"/>
<path d="M122.5 898.203C143 876.202 187.1 814.503 267.5 839.703C307 852.084 364.5 898.203 443 948.032C494.176 976.262 548.784 1007.13 600.5 1037.7C612.833 1041.87 643.475 1057.98 657 1050.2" stroke="black" stroke-width="20"/>
<path d="M633.5 1047.7C702.667 1021.54 830.3 953.303 831.5 939.703C833 922.703 848.5 856.703 802 828.703" stroke="black" stroke-width="20"/>
<path d="M443.494 17.957L445.377 27.778L445.377 27.778L443.494 17.957ZM446.667 13.2792L456.485 11.3803L456.485 11.3803L446.667 13.2792ZM368.398 32.3588L366.515 22.5378C363.586 23.0993 361.061 24.9384 359.628 27.5533C358.196 30.1681 358.004 33.286 359.107 36.0564L368.398 32.3588ZM390.032 86.7213L399.324 83.0238L399.324 83.0238L390.032 86.7213ZM387.789 91.9078L391.467 101.207L391.467 101.207L387.789 91.9078ZM382.589 89.6652L373.298 93.3628L373.298 93.3628L382.589 89.6652ZM359.17 30.8175L368.461 27.12L368.461 27.1199L359.17 30.8175ZM359.379 27.4237L350.614 22.6105L350.614 22.6105L359.379 27.4237ZM362.133 25.4219L364.016 35.2429L364.016 35.2429L362.133 25.4219ZM441.976 10.1096L443.859 19.9306L443.859 19.9306L441.976 10.1096ZM535.006 75.279L543.973 70.8536L543.973 70.8536L535.006 75.279ZM529.644 73.456L534.049 82.4336L534.049 82.4335L529.644 73.456ZM560.142 126.214L569.109 121.788L569.109 121.788L560.142 126.214ZM559.98 130.039L551.419 124.872L551.419 124.872L559.98 130.039ZM556.667 131.97L556.954 141.966L556.954 141.966L556.667 131.97ZM491.116 133.846L491.402 143.842L491.402 143.842L491.116 133.846ZM490.88 125.859L490.594 115.863L490.594 115.863L490.88 125.859ZM550.204 124.161L550.49 134.157C553.895 134.059 557.015 132.236 558.772 129.318C560.528 126.4 560.679 122.789 559.172 119.735L550.204 124.161ZM527.821 78.8044L536.789 74.379L536.789 74.379L527.821 78.8044ZM521.441 51.6874L523.227 61.5266L523.227 61.5266L521.441 51.6874ZM520.001 43.8254L518.215 33.9862L518.215 33.9862L520.001 43.8254ZM419.349 62.0974L421.135 71.9366L421.135 71.9366L419.349 62.0974ZM416.13 66.7435L406.293 68.5448L406.293 68.5448L416.13 66.7435ZM420.789 69.9594L419.002 60.1202L419.002 60.1202L420.789 69.9594ZM445.377 27.778C452.962 26.3234 457.957 18.9923 456.485 11.3803L436.849 15.1781C436.215 11.9001 438.368 8.75768 441.61 8.13596L445.377 27.778ZM370.282 42.1798L445.377 27.778L441.61 8.13596L366.515 22.5378L370.282 42.1798ZM399.324 83.0238L377.689 28.6612L359.107 36.0564L380.741 90.4189L399.324 83.0238ZM391.467 101.207C398.656 98.3635 402.189 90.224 399.324 83.0238L380.741 90.4189C379.509 87.3216 381.033 83.8262 384.111 82.6087L391.467 101.207ZM373.298 93.3628C376.157 100.548 384.293 104.044 391.467 101.207L384.111 82.6087C387.174 81.3972 390.654 82.8858 391.88 85.9677L373.298 93.3628ZM349.879 34.5151L373.298 93.3628L391.88 85.9677L368.461 27.12L349.879 34.5151ZM350.614 22.6105C348.604 26.2713 348.335 30.6368 349.879 34.5152L368.461 27.1199C369.124 28.7856 369.009 30.6627 368.145 32.2369L350.614 22.6105ZM360.249 15.6009C356.159 16.3853 352.623 18.9507 350.614 22.6105L368.145 32.2369C367.281 33.81 365.764 34.9077 364.016 35.2429L360.249 15.6009ZM440.092 0.288578L360.249 15.6009L364.016 35.2429L443.859 19.9306L440.092 0.288578ZM456.485 11.3803C455.015 3.78039 447.665 -1.16375 440.092 0.288579L443.859 19.9306C440.63 20.55 437.48 18.4441 436.849 15.1782L456.485 11.3803ZM543.973 70.8536C540.553 63.9224 532.167 61.0792 525.239 64.4786L534.049 82.4335C531.089 83.8859 527.504 82.675 526.038 79.7045L543.973 70.8536ZM569.109 121.788L543.973 70.8536L526.038 79.7044L551.174 130.639L569.109 121.788ZM568.542 135.207C571.008 131.121 571.219 126.064 569.109 121.788L551.174 130.639C550.268 128.803 550.359 126.629 551.419 124.872L568.542 135.207ZM556.954 141.966C561.708 141.83 566.077 139.29 568.542 135.207L551.419 124.872C552.478 123.117 554.351 122.032 556.381 121.974L556.954 141.966ZM491.402 143.842L556.954 141.966L556.381 121.974L490.83 123.851L491.402 143.842ZM477 130.263C477.229 138.006 483.695 144.063 491.402 143.842L490.83 123.851C494.116 123.757 496.893 126.34 496.991 129.672L477 130.263ZM490.594 115.863C482.88 116.084 476.771 122.512 477 130.263L496.991 129.672C497.09 133.011 494.459 135.76 491.166 135.855L490.594 115.863ZM549.918 114.165L490.594 115.863L491.166 135.855L550.49 134.157L549.918 114.165ZM518.854 83.2298L541.237 128.586L559.172 119.735L536.789 74.379L518.854 83.2298ZM525.239 64.4785C518.295 67.8857 515.425 76.2826 518.854 83.2298L536.789 74.379C538.262 77.3656 537.025 80.9734 534.049 82.4336L525.239 64.4785ZM514.824 48.8426C514.223 45.5582 516.408 42.4377 519.655 41.8482L523.227 61.5266C530.826 60.1471 535.894 52.8664 534.497 45.24L514.824 48.8426ZM521.788 53.6646C518.552 54.252 515.423 52.115 514.824 48.8426L534.497 45.24C533.103 37.6255 525.802 32.6089 518.215 33.9862L521.788 53.6646ZM421.135 71.9366L521.788 53.6646L518.215 33.9862L417.563 52.2583L421.135 71.9366ZM425.966 64.9423C426.567 68.2266 424.382 71.3471 421.135 71.9366L417.563 52.2583C409.964 53.6377 404.897 60.9184 406.293 68.5448L425.966 64.9423ZM419.002 60.1202C422.238 59.5328 425.367 61.6698 425.966 64.9422L406.293 68.5448C407.687 76.1593 414.988 81.1759 422.575 79.7986L419.002 60.1202ZM519.655 41.8482L419.002 60.1202L422.575 79.7986L523.227 61.5266L519.655 41.8482Z" fill="#3040E2"/>
<path d="M174.199 573.966L212.337 662.446C221.745 654.564 252.611 643.529 300.817 662.446M300.817 662.446C360.313 662.446 403.79 689.142 411.417 709.737C419.045 730.331 424.689 759.781 380.144 754.9C371.754 763.544 336.209 793.495 316.073 783.122M300.817 662.446C188.539 714.313 223.525 774.571 255.052 798.217C284.799 812.709 312.513 795.58 316.073 783.122M316.073 783.122C313.632 753.832 293.698 752.103 284.037 754.9M306.92 721.178C316.581 718.381 353.448 731.094 348.108 773.809" stroke="black" stroke-width="20"/>
<path d="M339.718 701.347C355.228 702.618 391.586 714.314 376.331 757.028" stroke="black" stroke-width="20"/>
<path d="M149 410.203C129.931 405.372 87.7024 406.311 92.5841 437.432L119.281 494.639C96.9063 491.842 48.0389 503.334 31.5633 571.677C15.2911 625.325 -7.48993 741.925 31.5633 779.148C53.1749 807.624 111.043 856.034 169.623 821.862C179.793 826.185 227 844.703 255 815.703L445.742 895.087M445.742 895.087L834.749 821.862L903.397 538.879L601.344 564.246M445.742 895.087L512.864 571.677L601.344 564.246M445.742 400.819C470.15 401.582 511.644 418.21 482.354 478.621C510.576 472.396 573.885 480.805 601.344 564.246" stroke="black" stroke-width="20"/>
<path d="M98 835.203C83.8333 876.036 66.5278 949.703 92 1015.2C113 1069.2 229.4 1138.4 381 1097.2" stroke="black" stroke-width="20"/>
<circle cx="289.376" cy="236.063" r="222.641" stroke="black" stroke-width="20"/>
<path d="M204.662 668.933C193.708 668.933 182.754 668.933 171.8 668.933C165.505 668.933 159.218 668.172 153.349 670.813C147.437 673.474 136.144 678.139 133.228 683.972" stroke="black" stroke-width="20" stroke-linecap="round"/>
<path d="M152.265 665.48C142.25 665.48 133.151 660.441 123.153 660.441C118.321 660.441 112.594 659.6 107.944 661.094C106.271 661.632 101.651 662.577 101.039 663.8" stroke="black" stroke-width="20" stroke-linecap="round"/>
<path d="M261.154 458.026C275.901 464.383 310.733 498.147 322.938 542.693C326.491 555.663 316.782 560.196 299.292 559.174M114.704 490.825C140.133 502.117 173.156 522.096 206.235 534.302C231.325 543.561 255.777 551.342 275.816 555.66" stroke="black" stroke-width="20"/>
<path d="M354.211 456.501C341.244 487.266 318.361 550.32 330.565 556.422C333.979 558.129 344.973 557.286 359.55 553.944M486.168 477.858C474.726 493.113 443.617 519.191 419.045 532.014C406.139 538.749 392.637 544.155 380.144 548.21" stroke="black" stroke-width="20"/>
<path d="M215.965 304.681C235.835 304.681 255.706 304.681 275.576 304.681C277.422 304.681 279.369 304.011 279.369 306.307C279.369 313.983 279.449 321.663 279.369 329.339C279.214 344.304 271.284 362.767 255.886 368.086C247.192 371.089 239.509 370.323 232.674 364.293C221.833 354.727 213.526 341.283 213.526 326.629C213.526 320.76 210.794 312.584 213.526 307.12" stroke="black" stroke-width="20" stroke-linecap="round"/>
<path d="M186.357 248.586C186.357 253.321 187.417 254.085 192.2 254.085C194.677 254.085 196.71 247.331 194.911 245.531C193.512 244.132 188.949 242.394 187.044 243.24C185.24 244.042 184.697 249.818 186.357 250.648" stroke="black" stroke-width="20" stroke-linecap="round"/>
<path d="M164.361 201.157C164.616 199.112 171.17 196.918 173.029 196.345C176.243 195.357 179.593 195.658 182.92 195.658C188.228 195.658 189.942 199.194 193.918 201.844" stroke="black" stroke-width="20" stroke-linecap="round"/>
<path d="M287.402 223.841H334.831" stroke="black" stroke-width="20" stroke-linecap="round"/>
<path d="M290.151 253.398H326.583" stroke="black" stroke-width="20" stroke-linecap="round"/>
<path d="M652.449 519.047C666.942 475.316 694.554 382.513 689.062 361.156C688.553 350.477 692.418 331.256 711.944 339.799C736.353 350.477 741.692 383.276 741.692 406.159C761.524 406.413 802.255 419.736 806.527 470.993C806.781 487.266 802.408 524.844 782.881 544.981" stroke="black" stroke-width="20"/>
<path d="M755.422 409.425C748.64 409.425 739.763 408.237 733.316 411.451C727.093 414.553 721.174 418.469 716.647 423.982C713.535 427.774 710.096 429.921 708.118 434.751C705.467 441.223 702.648 448.134 700.796 454.899C697.345 467.512 695.927 480.83 695.927 493.92C695.927 504.26 695.76 515.621 700.05 525.212C702.154 529.917 705.122 533.757 707.442 538.044C708.722 540.408 723.811 553.835 725.355 550.576" stroke="black" stroke-width="20" stroke-linecap="round"/>
<path d="M652.45 519.047C652.45 522.635 650.924 535.828 652.45 539.641C653.212 542.692 654.85 545.008 656.665 547.024C657.987 548.494 660.605 551.203 661.383 552.759" stroke="black" stroke-width="20" stroke-linecap="round"/>
<path d="M705.08 448.013C714.683 446.88 737.891 446.382 753.896 453.45" stroke="black" stroke-width="20"/>
<path d="M697.452 478.523C707.055 477.391 730.263 476.892 746.269 483.96" stroke="black" stroke-width="20"/>
<path d="M694.401 509.034C704.004 507.901 727.212 507.403 743.218 514.471" stroke="black" stroke-width="20"/>
<path d="M360.313 769.232L477.015 733.382" stroke="black" stroke-width="20"/>
<path d="M386.246 816.523L464.048 782.962" stroke="black" stroke-width="20"/>
<path d="M418.282 828.727L460.234 810.421" stroke="black" stroke-width="20"/>
<path d="M342.539 791.821C337.322 793.633 334.562 799.332 336.374 804.549C338.186 809.766 343.884 812.526 349.101 810.714L342.539 791.821ZM349.101 810.714L476.482 766.474L469.92 747.581L342.539 791.821L349.101 810.714Z" fill="black"/>
<path d="M348.496 791.878C343.31 789.979 337.566 792.643 335.667 797.829C333.768 803.015 336.433 808.759 341.619 810.658L348.496 791.878ZM341.619 810.658L449.931 850.322L456.808 831.541L348.496 791.878L341.619 810.658Z" fill="black"/>
<path d="M276.413 542.783C274.547 542.55 271.609 537.021 271.044 535.184C270.22 532.504 270.086 529.277 271.044 526.593C272.179 523.415 280.528 516.903 284.013 516.764C289.212 516.556 295.732 516.675 296.486 523.454C296.95 527.634 297.229 531.703 297.229 536.093" stroke="black" stroke-width="20" stroke-linecap="round"/>
<path d="M276.409 543.456C278.952 575.491 285.867 644.292 293.19 663.209" stroke="black" stroke-width="20"/>
<path d="M365.7 533.453C365.231 527.95 360.389 523.869 354.887 524.338C349.384 524.808 345.303 529.649 345.772 535.152L365.7 533.453ZM345.772 535.152C347.4 554.248 350.426 584.282 354.223 612.405C356.121 626.462 358.224 640.138 360.459 651.776C362.649 663.18 365.099 673.375 367.86 680.015L386.327 672.336C384.428 667.77 382.283 659.373 380.1 648.005C377.962 636.871 375.916 623.596 374.043 609.729C370.301 582.007 367.308 552.309 365.7 533.453L345.772 535.152Z" fill="black"/>
<path d="M296.241 537.354C301.58 572.695 313.632 647.191 319.124 662.446" stroke="black" stroke-width="20"/>
<path d="M393.128 533.141C392.487 527.656 387.52 523.729 382.035 524.37C376.549 525.011 372.622 529.978 373.263 535.463L393.128 533.141ZM373.263 535.463C375.938 558.347 380.293 593.906 384.67 626.233C388.989 658.129 393.467 687.997 396.445 698.69L415.712 693.324C413.198 684.297 408.904 656.155 404.489 623.55C400.133 591.376 395.793 555.942 393.128 533.141L373.263 535.463Z" fill="black"/>
<path d="M356.982 541.048C355.08 535.247 351.841 529.432 354.412 523.635C356.72 518.434 363.461 513.46 369.114 514.729C374.854 516.018 378.67 516.916 382.94 521.583C385.013 523.849 386.631 530.618 384.642 532.76" stroke="black" stroke-width="20" stroke-linecap="round"/>
<path fill-rule="evenodd" clip-rule="evenodd" d="M714.624 647C713.961 648.263 713.572 650.915 713.759 652.892L714.101 656.489L721.633 656.823C730.301 657.207 732.271 656.123 732.271 650.964C732.271 645.833 730.548 644.703 722.729 644.703C716.906 644.703 715.643 645.061 714.624 647ZM698.895 651.406C684.437 657.164 674.187 671.04 671.619 688.331C668.286 710.781 678.578 731.094 698.402 741.191C707.137 745.64 715.562 747.233 726.765 746.552C737.335 745.911 743.324 743.86 752.094 737.879C758.547 733.478 767.98 722.71 766.917 720.958C766.567 720.379 764.843 719.905 763.085 719.905C760.758 719.905 758.758 721.154 755.717 724.508C747.627 733.43 736.781 737.837 722.911 737.837C698.893 737.837 681.832 723.692 678.947 701.385C676.785 684.669 687.107 665.532 702.047 658.562C707.894 655.833 708.749 654.615 707.376 650.968C706.535 648.736 705.46 648.792 698.895 651.406ZM737.816 651.364C735.836 655.135 736.544 656.758 741.449 659.687C752.437 666.251 758.517 677.975 757.277 690.214C755.684 705.956 744.203 715.28 727.896 714.077C722.46 713.677 720.66 713.006 717.967 710.377C716.159 708.61 714.366 705.465 713.984 703.389C713.289 699.616 713.629 698.45 721.703 676.922C725.591 666.552 725.492 664.898 720.984 664.941C717.472 664.976 717.315 665.203 712.643 677.007C705.662 694.643 704.027 701.826 705.696 707.508C708.765 717.949 717.396 723.463 730.839 723.572C755.989 723.777 772.608 697.563 763.193 672.537C760.205 664.597 752.389 655.564 745.366 651.937C738.984 648.641 739.236 648.66 737.816 651.364Z" fill="black" stroke="black" stroke-width="6"/>
</svg>
