<svg width="1145" height="1240" viewBox="0 0 1145 1240" fill="none" xmlns="http://www.w3.org/2000/svg">
<path d="M512.931 60.9414C335.731 139.341 362.098 300.608 397.431 371.441L295.931 259.441C297.598 233.275 296.831 178.541 280.431 168.941C264.031 159.341 250.264 193.275 245.431 211.441L182.431 156.941C111.631 166.541 96.5978 234.275 97.9312 266.941L197.431 336.941L214.931 363.441C179.931 392.441 197.431 413.941 197.431 425.441C197.431 436.941 293.931 525.441 293.931 529.441C293.931 532.641 246.598 660.775 222.931 724.441C212.531 743.241 244.264 801.608 261.431 828.441L105.431 1004.94H17.4312L10.9312 1022.44L197.431 1180.94L364.431 977.441C405.631 979.441 529.931 990.941 586.931 996.441C627.731 1195.24 662.598 1233.61 674.931 1227.94C756.431 1197.94 934.931 1063.44 899.431 1053.94C871.031 1046.34 822.264 1062.11 801.431 1070.94L730.431 925.441L751.931 898.441L730.431 853.441L765.431 828.441C787.031 810.041 756.431 688.441 738.431 629.941C900.431 593.141 949.931 532.275 954.431 506.441V465.941L975.431 452.441C1087.83 460.041 1123.93 437.608 1127.93 425.441V326.941C1125.13 282.141 1038.1 308.275 994.931 326.941C998.931 282.441 988.931 255.941 975.431 253.941C964.631 252.341 924.598 319.941 905.931 353.941L751.931 425.441C816.731 363.841 819.931 273.775 813.431 236.441C762.231 28.0414 591.764 32.6081 512.931 60.9414Z" fill="white"/>
<path d="M497.431 629.884C488.631 618.284 476.764 548.051 471.931 514.384C565.931 572.384 619.764 528.884 634.931 499.884C616.809 558.493 566.877 608.181 541.654 627.81C540.91 630.906 540.009 634.574 538.931 638.884C528.531 680.484 552.931 837.218 566.431 910.384C631.631 910.384 704.264 876.718 732.431 859.884L752.431 910.384C523.631 1083.98 312.431 955.051 235.431 868.884L267.931 845.384C346.331 880.184 405.264 885.218 424.931 883.384C486.431 792.884 508.431 644.384 497.431 629.884Z" fill="#E6BAFB" stroke="black"/>
<path d="M472.931 460.884C467.931 512.884 480.031 615.284 498.431 632.884" stroke="black" stroke-width="20"/>
<path d="M736.863 442.884L915.863 351.384C935.196 315.384 959.894 251.798 980.863 260.884C995.863 267.384 1007.86 278.384 995.863 332.884C1032.2 317.051 1107.36 291.384 1122.36 320.384C1141.11 356.627 1133.33 418.884 1128.86 428.384C1124.86 436.884 1105.36 467.384 971.863 455.384M734.863 861.384L752.863 902.384M752.863 902.384L736.863 926.384L801.363 1072.88C834.863 1060.55 872.363 1047.88 903.363 1059.88C912.363 1085.88 800.563 1170.98 663.363 1229.38C655.363 1228.88 628.463 1180.38 584.863 990.384C620.363 985.218 703.663 960.384 752.863 902.384ZM438.363 429.384L296.863 267.384C302.363 239.051 298.712 169.384 282.863 169.384C269.363 169.384 257.863 178.884 246.363 214.384L183.863 159.884C154.363 169.384 96.363 194.384 102.363 267.384C102.363 267.384 125.663 290.884 198.863 336.884" stroke="black" stroke-width="20"/>
<path d="M1061.93 349.884L1124.43 335.884" stroke="black" stroke-width="20"/>
<path d="M1070.43 386.384L1128.43 375.384" stroke="black" stroke-width="20"/>
<path d="M1075.43 418.384L1134.43 410.384" stroke="black" stroke-width="20"/>
<path d="M258.431 839.884L105.431 1007.88C82.4311 1002.55 31.5311 995.084 11.9311 1007.88C-7.66894 1020.68 126.764 1129.22 196.431 1181.88L369.431 977.884" stroke="black" stroke-width="20"/>
<path d="M236.431 869.884C257.098 918.551 354.931 1013.58 582.931 992.384" stroke="black" stroke-width="20"/>
<circle cx="593.431" cy="269.384" r="223.5" stroke="black" stroke-width="20"/>
<path d="M896.519 365.757C929.822 370.584 966.757 426.754 970.431 456.884" stroke="black" stroke-width="20" stroke-linecap="round"/>
<path d="M512.931 145.384C521.931 129.051 546.831 106.184 574.431 145.384" stroke="black" stroke-width="20"/>
<path d="M665.431 159.384C678.098 149.051 706.131 138.184 716.931 177.384" stroke="black" stroke-width="20"/>
<path d="M526.613 280.726C559.938 280.726 593.221 280.829 626.537 281.654C641.09 282.015 656.532 280.283 670.992 282.185C675.157 282.733 679.245 283.845 683.2 285.237C689.453 287.439 687.68 295.965 687.314 301.825C684.253 350.902 655.622 422.185 594.556 411.038C582.716 408.877 573.828 398.467 566.025 390.204C558.971 382.733 552.108 374.581 546.518 365.92C531.351 342.418 525.885 317.403 523.03 290.28" stroke="black" stroke-width="20" stroke-linecap="round"/>
<path d="M510.629 208.659C518.376 214.592 529.891 223.376 537.92 229.64C540.697 231.808 544.325 233.33 546.036 236.41C546.304 236.891 546.419 237.629 545.717 237.863C543.238 238.689 540.016 237.823 537.424 238.111C533.636 238.532 530.127 240.177 526.401 240.876C516.781 242.679 507.585 245.084 497.87 246.298" stroke="black" stroke-width="20" stroke-linecap="round"/>
<path d="M678.412 219.504C676.301 219.856 673.872 221.441 672.104 222.339C664.611 226.144 657.228 230.128 650.2 234.744C647.241 236.688 644.019 239.718 640.489 240.698C635.595 242.058 646 242.345 647.081 242.612C662.06 246.314 676.736 251.092 691.171 256.506" stroke="black" stroke-width="20" stroke-linecap="round"/>
<path d="M738.723 189.49L747.123 9.99995L874.064 134.388L821.121 153.514L842.403 204.94L809.026 219.294L787.488 170.002L738.723 189.49Z" stroke="#D3BAFB" stroke-width="20" stroke-linejoin="round"/>
<path d="M112.931 233.884L148.931 256.884" stroke="black" stroke-width="20"/>
<path d="M130.931 194.884L170.931 233.884" stroke="black" stroke-width="20"/>
<path d="M157.931 171.884L197.931 211.884" stroke="black" stroke-width="20"/>
<path d="M197.931 346.884C207.655 323.061 243.968 270.609 297.431 269.384" stroke="black" stroke-width="20"/>
<path d="M313.431 292.884C292.764 296.718 241.731 322.284 220.931 365.884" stroke="black" stroke-width="20"/>
<path d="M202.931 341.384L219.931 365.384C208.598 374.384 189.331 398.584 202.931 423.384C219.931 454.384 279.431 517.884 299.431 536.384M732.431 631.884C810.431 630.218 933.431 565.884 955.431 506.884V468.384" stroke="black" stroke-width="20"/>
<path d="M867.931 380.884C883.796 389.372 919.108 397.044 954.931 475.884" stroke="black" stroke-width="20"/>
<path d="M250.925 824.436C265.351 837.9 286.633 847.057 304.28 855.88C322.923 865.202 343.937 872.971 364.038 878.503C382.905 883.694 401.753 885.901 421.234 885.901" stroke="black" stroke-width="20" stroke-linecap="round"/>
<path d="M419.954 885.901C446.633 843.528 467.487 796.41 477.009 747.178C482.939 716.513 488.377 685.776 491.592 654.696C492.324 647.62 495.505 634.384 495.505 628.516" stroke="black" stroke-width="20" stroke-linecap="round"/>
<path d="M740.085 637.48C740.085 649.977 748.413 664.72 752.108 676.607C754.999 685.909 757.738 695.086 759.648 704.636C765.037 731.578 769.851 759.033 771.956 786.447C773.2 802.662 772.417 820.07 761.854 833.4C756.463 840.203 747.684 842.35 740.085 845.636C730.439 849.807 722.551 858.014 713.905 863.848C691.288 879.107 662.708 886.505 636.291 892.375C619.806 896.038 603.764 901.992 586.778 902.477C579.304 902.69 569.924 904.398 563.871 899.276C556.744 893.246 554.932 887.705 554.48 878.218C553.001 847.164 546.323 816.62 544.449 785.594C543.137 763.874 541.448 742.177 540.608 720.429C539.637 695.306 537.762 669.862 537.762 644.736C537.762 642.473 536.431 633.384 541.888 628.231C547.431 624.884 570.154 605.488 573.19 602.052C592.652 580.025 609.735 554.434 624.269 528.92C630.195 518.515 635.795 505.531 638.924 494.061" stroke="black" stroke-width="20" stroke-linecap="round"/>
<path d="M471.931 496.884C489.835 524.212 546.3 563.642 628.931 502.74" stroke="black" stroke-width="20"/>
<path d="M284.198 524.631C284.198 544.584 284.638 566.259 278.501 585.507C271.106 608.702 259.2 630.721 249.849 653.184C243.508 668.417 237.267 683.696 231.229 699.053C228.268 706.586 224.68 714.352 223.918 722.519C222.416 738.608 223.507 755.784 226.001 771.746C227.198 779.412 234.109 785.769 236.926 792.959C238.837 797.837 241.125 802.817 242.155 807.965C243.275 813.568 244.79 818.608 248.999 822.291" stroke="black" stroke-width="20" stroke-linecap="round"/>
<path d="M286.451 805.788C286.637 818.518 285.107 833.113 291.605 844.665C292.57 846.381 293.855 847.468 294.469 849.31" stroke="black" stroke-width="20" stroke-linecap="round"/>
<path d="M326.538 824.113C326.538 815.151 325.475 842.347 327.937 850.965C328.912 854.376 331.358 863.746 334.555 865.345" stroke="black" stroke-width="20" stroke-linecap="round"/>
<path d="M366.624 835.566C366.624 851.744 367.685 865.163 374.641 880.234" stroke="black" stroke-width="20" stroke-linecap="round"/>
<path d="M223.797 765.827C231.622 768.836 239.755 777.978 246.268 783.216C254.565 789.89 262.579 794.79 272.353 799.025C287.301 805.503 304.013 810.087 318.311 817.657C342.717 830.577 398.419 840.884 425.931 840.884" stroke="black" stroke-width="20" stroke-linecap="round"/>
<path d="M563.931 856.884C597.142 856.884 619.87 846.03 649.731 831.885C678.779 818.125 719.938 808.927 740.067 782.087" stroke="black" stroke-width="20" stroke-linecap="round"/>
<path d="M607.951 857.292C607.951 873.428 615.787 884.464 624.211 897.943" stroke="black" stroke-width="20" stroke-linecap="round"/>
<path d="M660.797 836.966C660.797 848.807 662.796 856.525 666.895 867.455" stroke="black" stroke-width="20" stroke-linecap="round"/>
<path d="M703.481 824.771C703.481 833.009 707.488 838.225 711.611 845.097" stroke="black" stroke-width="20" stroke-linecap="round"/>
<path d="M420.955 436.552C420.955 482.178 416.553 524.021 429.989 567.991C432.919 577.582 437.911 586.272 441.168 595.769C448.5 617.156 435.752 632.665 424.569 649.293C409.735 671.349 411.931 687.105 421.633 710.948C424.665 718.401 433.127 728.817 432.134 737.258C430.39 752.082 419.646 764.29 413.954 777.57C407.101 793.561 410.875 800.905 414.745 815.737C418.175 828.888 417.126 824.695 413.954 837.384" stroke="black" stroke-width="20" stroke-linecap="round"/>
<path d="M685.188 489.399C680.701 528.284 667.022 573.669 638.89 602.77C626.59 615.495 604.293 627.812 600.272 645.906C595.26 668.461 608.165 688.936 594.852 710.722C579.705 735.508 602.835 747.381 610.886 768.085C615.772 780.648 612.272 799.806 609.08 812.576C606.774 821.796 606.279 831.328 604.902 840.693C604.053 846.462 606.421 854.877 599.82 853.227" stroke="black" stroke-width="20" stroke-linecap="round"/>
<path d="M733.969 788.185C743.602 777.714 751.335 765.925 758.36 753.631" stroke="black" stroke-width="20" stroke-linecap="round"/>
</svg>
