<svg width="224" height="144" viewBox="0 0 224 144" fill="none" xmlns="http://www.w3.org/2000/svg">
<path d="M95.5746 17.957L97.4581 27.778L97.4581 27.778L95.5746 17.957ZM98.7477 13.2792L108.566 11.3803L108.566 11.3803L98.7477 13.2792ZM20.4791 32.3588L18.5956 22.5378C15.6672 23.0994 13.1423 24.9384 11.7094 27.5533C10.2765 30.1681 10.0853 33.286 11.1878 36.0564L20.4791 32.3588ZM42.1134 86.7213L51.4046 83.0238L51.4046 83.0238L42.1134 86.7213ZM39.8699 91.9078L43.5478 101.207L43.5478 101.207L39.8699 91.9078ZM34.67 89.6652L25.3787 93.3628L25.3787 93.3628L34.67 89.6652ZM11.2508 30.8175L20.5421 27.12L20.5421 27.1199L11.2508 30.8175ZM11.4601 27.4237L2.69469 22.6105L2.69468 22.6105L11.4601 27.4237ZM14.2136 25.4219L16.097 35.2429L16.097 35.2429L14.2136 25.4219ZM94.0568 10.1096L95.9403 19.9306L95.9403 19.9306L94.0568 10.1096ZM187.087 75.279L196.054 70.8536L196.054 70.8536L187.087 75.279ZM181.725 73.456L186.13 82.4336L186.13 82.4335L181.725 73.456ZM212.223 126.214L221.19 121.788L221.19 121.788L212.223 126.214ZM212.061 130.039L203.5 124.872L203.5 124.872L212.061 130.039ZM208.748 131.97L209.034 141.966L209.034 141.966L208.748 131.97ZM143.197 133.846L143.483 143.842L143.483 143.842L143.197 133.846ZM142.961 125.859L142.675 115.863L142.675 115.863L142.961 125.859ZM202.285 124.161L202.571 134.157C205.976 134.059 209.096 132.236 210.853 129.318C212.609 126.4 212.76 122.789 211.253 119.735L202.285 124.161ZM179.902 78.8044L188.869 74.379L188.869 74.379L179.902 78.8044ZM173.522 51.6874L175.308 61.5266L175.308 61.5266L173.522 51.6874ZM172.082 43.8254L170.296 33.9862L170.296 33.9862L172.082 43.8254ZM71.4298 62.0974L73.216 71.9366L73.216 71.9366L71.4298 62.0974ZM68.2104 66.7435L58.374 68.5448L58.374 68.5448L68.2104 66.7435ZM72.8696 69.9594L71.0834 60.1202L71.0834 60.1202L72.8696 69.9594ZM97.4581 27.778C105.043 26.3234 110.038 18.9923 108.566 11.3803L88.9296 15.1781C88.2956 11.9001 90.4493 8.75768 93.6911 8.13596L97.4581 27.778ZM22.3625 42.1798L97.4581 27.778L93.6911 8.13596L18.5956 22.5378L22.3625 42.1798ZM51.4046 83.0238L29.7703 28.6612L11.1878 36.0564L32.8221 90.4189L51.4046 83.0238ZM43.5478 101.207C50.737 98.3635 54.27 90.224 51.4046 83.0238L32.8221 90.4189C31.5895 87.3216 33.1136 83.8262 36.192 82.6087L43.5478 101.207ZM25.3787 93.3628C28.238 100.548 36.3738 104.044 43.5478 101.207L36.192 82.6087C39.2551 81.3972 42.7348 82.8858 43.9613 85.9677L25.3787 93.3628ZM1.9595 34.5151L25.3787 93.3628L43.9613 85.9677L20.5421 27.12L1.9595 34.5151ZM2.69468 22.6105C0.68453 26.2713 0.416061 30.6368 1.95951 34.5152L20.5421 27.1199C21.2049 28.7856 21.09 30.6627 20.2256 32.2369L2.69468 22.6105ZM12.3301 15.6009C8.2399 16.3853 4.70433 18.9507 2.69469 22.6105L20.2256 32.2369C19.3618 33.81 17.845 34.9077 16.097 35.2429L12.3301 15.6009ZM92.1733 0.288578L12.3301 15.6009L16.097 35.2429L95.9403 19.9306L92.1733 0.288578ZM108.566 11.3803C107.096 3.78039 99.7463 -1.16375 92.1733 0.288578L95.9403 19.9306C92.7105 20.55 89.5613 18.4441 88.9296 15.1782L108.566 11.3803ZM196.054 70.8536C192.634 63.9224 184.248 61.0792 177.32 64.4786L186.13 82.4335C183.17 83.8859 179.585 82.675 178.119 79.7045L196.054 70.8536ZM221.19 121.788L196.054 70.8536L178.119 79.7044L203.255 130.639L221.19 121.788ZM220.623 135.207C223.089 131.121 223.3 126.064 221.19 121.788L203.255 130.639C202.349 128.803 202.439 126.629 203.5 124.872L220.623 135.207ZM209.034 141.966C213.788 141.83 218.158 139.29 220.623 135.207L203.5 124.872C204.559 123.117 206.432 122.032 208.462 121.974L209.034 141.966ZM143.483 143.842L209.034 141.966L208.462 121.974L142.911 123.851L143.483 143.842ZM129.081 130.263C129.31 138.006 135.776 144.063 143.483 143.842L142.911 123.851C146.197 123.757 148.974 126.34 149.072 129.672L129.081 130.263ZM142.675 115.863C134.961 116.084 128.852 122.512 129.081 130.263L149.072 129.672C149.171 133.011 146.54 135.76 143.247 135.855L142.675 115.863ZM201.999 114.165L142.675 115.863L143.247 135.855L202.571 134.157L201.999 114.165ZM170.935 83.2298L193.318 128.586L211.253 119.735L188.869 74.379L170.935 83.2298ZM177.32 64.4785C170.376 67.8857 167.506 76.2826 170.935 83.2298L188.869 74.379C190.343 77.3656 189.106 80.9734 186.13 82.4336L177.32 64.4785ZM166.905 48.8426C166.304 45.5582 168.489 42.4377 171.736 41.8482L175.308 61.5266C182.907 60.1471 187.975 52.8664 186.578 45.24L166.905 48.8426ZM173.869 53.6646C170.633 54.252 167.504 52.115 166.905 48.8426L186.578 45.24C185.184 37.6255 177.883 32.6089 170.296 33.9862L173.869 53.6646ZM73.216 71.9366L173.869 53.6646L170.296 33.9862L69.6437 52.2583L73.216 71.9366ZM78.0469 64.9423C78.6483 68.2266 76.4634 71.3471 73.216 71.9366L69.6437 52.2583C62.0451 53.6377 56.9774 60.9184 58.374 68.5448L78.0469 64.9423ZM71.0834 60.1202C74.319 59.5328 77.4476 61.6698 78.0469 64.9422L58.374 68.5448C59.7684 76.1593 67.0689 81.1759 74.6557 79.7986L71.0834 60.1202ZM171.736 41.8482L71.0834 60.1202L74.6557 79.7986L175.308 61.5266L171.736 41.8482Z" fill="#3040E2"/>
</svg>
