<svg width="623" height="893" viewBox="0 0 623 893" fill="none" xmlns="http://www.w3.org/2000/svg">
<path d="M235.5 248.5L222.5 284C119.3 374 196.833 457.5 248.5 488C195.7 496.4 171.167 546.833 165.5 571C146 707 270 694.5 248.5 705C227 715.5 229.5 753 227.5 741.5C225.9 732.3 212.5 727.333 206 726C192.8 725.2 190.5 754 191 768.5L158 777.5L147.5 801.5V833L165.5 852.5L206 859L235.5 892.5H587.5V360C545.5 189.2 442.667 163.167 396.5 171.5C404.1 99.5 366 64.8333 346 56.5C291.6 16.5 227 48.5 201.5 69.5C131.9 164.3 195.167 228.333 235.5 248.5Z" fill="white"/>
<path d="M93.5 102L101.5 76L114.5 102L143 114L114.5 126L101.5 154L93.5 126L69 114L93.5 102Z" fill="#FFDE91"/>
<path d="M439 638.5C459.833 651 504.8 708.4 518 838" stroke="black" stroke-width="10"/>
<path d="M503 470.5C512.167 505.833 525.7 584.6 506.5 617C501.667 622.667 489.3 631.8 478.5 623" stroke="black" stroke-width="10"/>
<path d="M203.5 855.5C207.833 865.5 226.4 884.5 242 886.5C252.5 888.5 278.5 881 290.5 835" stroke="black" stroke-width="10"/>
<path d="M339.5 856C345.167 864.833 373.9 882.8 401.5 876C437.5 867.13 452.5 783 452.5 743M208 391.5L230.5 371.5" stroke="black" stroke-width="10"/>
<path d="M268.5 360.5L296 369.5" stroke="black" stroke-width="10"/>
<path d="M273 393L244.5 404C244.5 406.5 273 433.5 277.5 429C281.1 425.4 276 403.5 273 393Z" stroke="black" stroke-width="10"/>
<path d="M373 783C369.833 770.167 360.2 735.2 347 732C340.5 730.333 333.5 732 333.5 768.5C323.666 762.833 300.3 761.8 291.5 783C287.833 792.167 283.4 816.9 295 842.5C301.833 849.167 322.7 859.9 351.5 849.5C353.666 848.833 361 844.1 373 830.5" stroke="black" stroke-width="10"/>
<path d="M294 786L320 794.5" stroke="black" stroke-width="10"/>
<path d="M288 804L314 812.5" stroke="black" stroke-width="10"/>
<path d="M288 822L314 830.5" stroke="black" stroke-width="10"/>
<path d="M588.236 363.5C571.903 291.167 514.236 158 394.736 172" stroke="black" stroke-width="8"/>
<path d="M171.615 164.266C179.942 224.693 237.203 266.919 299.724 258.303C362.245 249.686 405.949 193.546 397.621 133.119C389.293 72.6919 332.033 30.466 269.512 39.0823C206.991 47.6987 163.287 103.839 171.615 164.266Z" stroke="black" stroke-width="8"/>
<path d="M171.615 391.266C179.942 451.693 237.203 493.919 299.724 485.303C362.245 476.686 405.949 420.546 397.621 360.119C389.293 299.692 332.033 257.466 269.512 266.082C206.991 274.699 163.287 330.839 171.615 391.266Z" stroke="black" stroke-width="8"/>
<path d="M162.615 612.266C170.942 672.693 228.203 714.919 290.724 706.303C353.245 697.686 396.949 641.546 388.621 581.119C380.293 520.692 323.033 478.466 260.512 487.082C197.991 495.699 154.287 551.839 162.615 612.266Z" stroke="black" stroke-width="8"/>
<path d="M248.267 513.267L287.115 471.901L335.406 495.609L399.143 493.905L354.306 528.104L319.424 505.454L248.267 513.267Z" stroke="#EB872D" stroke-width="9" stroke-linecap="round" stroke-linejoin="round"/>
<path d="M374.308 269.3L298.932 245.349L330.966 316.567L346.918 297.706L364.91 314.313L375.914 302.773L358.843 286.387L374.308 269.3Z" stroke="#D3BAFB" stroke-width="9" stroke-linejoin="round"/>
<path fill-rule="evenodd" clip-rule="evenodd" d="M361.689 39.4095C359.276 40.8498 358.409 43.9267 359.753 46.282L375.012 73.0311L352.811 81.1603C350.185 82.1219 348.75 84.9994 349.605 87.5872C350.461 90.1751 353.283 91.4935 355.909 90.5318L383.884 80.2881C385.305 79.7678 386.445 78.6485 386.991 77.2368C387.537 75.825 387.432 74.2689 386.705 72.9945L368.492 41.0662C367.148 38.711 364.103 37.9692 361.689 39.4095ZM320.571 31.2998C319.924 28.6442 317.223 27.1022 314.537 27.8557L288.899 35.0503C287.24 35.5159 285.899 36.7863 285.343 38.4198C284.786 40.0534 285.091 41.8246 286.152 43.1179L304.926 66.0177C306.642 68.1107 309.788 68.3483 311.952 66.5483C314.117 64.7484 314.48 61.5925 312.764 59.4995L298.854 42.5317L316.881 37.4728C319.566 36.7193 321.219 33.9555 320.571 31.2998ZM324.802 30.038C323.436 27.6982 324.274 24.613 326.674 23.147C329.074 21.6811 332.127 22.3895 333.493 24.7294L356.814 64.6722C358.18 67.012 357.342 70.0972 354.942 71.5632C352.542 73.0291 349.489 72.3207 348.123 69.9808L324.802 30.038Z" fill="#3040E2"/>
<path d="M430.5 527.5V557.5M430.5 557.5C409.5 564.833 374.6 589.4 403 629C413 634.333 440.2 641.8 469 629C472.167 626.167 479.2 615 482 593C479 581.167 464.5 557.5 430.5 557.5Z" stroke="black" stroke-width="10"/>
<path d="M264 626.5C270.667 632.5 285.6 639.3 292 618.5" stroke="black" stroke-width="10"/>
<path d="M410 599C407 606.833 402.3 624.3 407.5 631.5" stroke="black" stroke-width="10"/>
<path d="M428.831 603C425.831 610.833 421.131 628.3 426.331 635.5" stroke="black" stroke-width="10"/>
<path d="M451.831 603C448.831 610.833 444.131 628.3 449.331 635.5" stroke="black" stroke-width="10"/>
<path d="M233 145L237 158" stroke="black" stroke-width="10" stroke-linecap="round" stroke-linejoin="round"/>
<path d="M218.5 135L242 146.5" stroke="black" stroke-width="10" stroke-linecap="round" stroke-linejoin="round"/>
<path d="M261 117.5C263.833 110.667 273.2 99.6001 288 110" stroke="black" stroke-width="10" stroke-linecap="round" stroke-linejoin="round"/>
<path d="M276 136L278 147" stroke="black" stroke-width="10" stroke-linecap="round" stroke-linejoin="round"/>
<path d="M265.5 185C275.333 187.833 297.3 188.2 306.5 167" stroke="black" stroke-width="10" stroke-linecap="round" stroke-linejoin="round"/>
<path d="M112 341.5C122.4 373.9 157 399.667 173 408.5C192.2 462.1 241.667 482.5 264 486C236 486.8 204.333 509 192 520C128.4 480.8 79.1667 401.333 62.5 366.5C7.29999 342.9 2.16666 336.333 6.49999 336C8.09999 328.4 26.8333 327.833 36 328.5C13.2 318.1 6.83334 310.167 6.49999 307.5C11.3 302.3 40.8333 305.333 55 307.5C31.8 273.5 32.6667 262.333 36 261C57.6 269.8 82.3334 303.333 92 319C96.8 288.6 111.333 287.333 118 290.5L112 341.5Z" fill="white" stroke="black" stroke-width="10"/>
<path d="M394 411.5C439.333 405 537.9 432.9 569.5 596.5" stroke="black" stroke-width="10"/>
<path d="M193 770.5C192.667 753.833 193.4 723.3 213 730.5C217.333 731.667 228.84 743 232.5 778.5C234.167 794.667 235.5 811.5 232.5 826.5C231.656 830.718 220 857 177 854.5M193 770.5C157.4 767.7 148.167 790.333 148 802C139.6 837.2 163.833 851.667 177 854.5M193 770.5C204 780.5 206.769 793 206.5 814.5C206.333 827.833 200.2 854.5 177 854.5" stroke="black" stroke-width="10"/>
<path d="M177 795C182.727 792.736 196.145 789.567 204 795" stroke="black" stroke-width="10"/>
<path d="M178 814C183.727 811.736 197.145 808.567 205 814" stroke="black" stroke-width="10"/>
<path d="M178 833C183.727 830.736 197.145 827.567 205 833" stroke="black" stroke-width="10"/>
<path d="M255 707C246.723 707.532 229.536 716.478 227 748" stroke="black" stroke-width="10" stroke-linecap="round"/>
<path d="M238 250C234.5 253.333 224.5 262 222 282.5" stroke="black" stroke-width="10"/>
<path d="M62.8754 114L63.6373 112.151C63.6382 112.151 63.6391 112.152 63.6401 112.152L63.6373 112.151L62.8754 114ZM62.8754 114L63.6373 115.849C63.6381 115.849 63.639 115.849 63.6398 115.848L63.6373 115.849L62.8754 114ZM91.0346 123.438L91.0346 123.438L68.1257 114L91.0346 104.562C93.186 103.675 94.845 101.896 95.5788 99.6879L103.5 75.8537L111.421 99.6879C112.155 101.896 113.814 103.675 115.965 104.562L138.874 114L115.965 123.438C113.814 124.325 112.155 126.104 111.421 128.312L103.5 152.146L95.5788 128.312C94.845 126.104 93.1861 124.325 91.0346 123.438Z" stroke="black" stroke-width="10"/>
<path d="M254.137 575.853L160.788 612.774C164.962 631.598 183.567 664.912 224.596 647.582C265.626 630.251 261.386 592.541 254.137 575.853ZM254.137 575.853L347.487 538.931C352.962 557.279 355.09 597.293 319.797 610.569C284.504 623.845 261.319 592.956 254.137 575.853Z" stroke="#EB872D" stroke-width="10" stroke-linecap="round" stroke-linejoin="round"/>
<path d="M242.984 598.702C243.073 599.413 246.912 603.247 246.193 601C245.71 599.491 248 596.902 244.217 597.502C242.679 597.502 242.15 598.323 242.15 599.602C242.15 600.26 242.861 603.925 244.217 602.569C246.295 600.491 246.715 598.833 244.784 596.902" stroke="black" stroke-width="10" stroke-linecap="round"/>
<path d="M288.834 580.8C288.923 581.511 292.762 585.345 292.043 583.098C291.56 581.589 293.85 579 290.067 579.6C288.53 579.6 288 580.421 288 581.7C288 582.359 288.711 586.023 290.067 584.668C292.146 582.589 292.565 580.931 290.634 579" stroke="black" stroke-width="10" stroke-linecap="round"/>
</svg>
