<svg width="840" height="616" viewBox="0 0 840 616" fill="none" xmlns="http://www.w3.org/2000/svg">
<path d="M488.358 26.3522L450.512 37.5936L464.63 64.97" stroke="#3040E2" stroke-width="10" stroke-linecap="round" stroke-linejoin="round"/>
<path d="M534.212 52.6276L548.784 76.0901L517.201 80.1399" stroke="#3040E2" stroke-width="10" stroke-linecap="round" stroke-linejoin="round"/>
<path d="M527.645 38.9528L479.887 52.6242" stroke="#3040E2" stroke-width="10" stroke-linecap="round" stroke-linejoin="round"/>
<path d="M441.022 272L601.5 147.5" stroke="black" stroke-width="5" stroke-linejoin="round"/>
<path d="M424 295L605 152" stroke="black" stroke-width="5" stroke-linejoin="round"/>
<path d="M424.022 303L481.022 259" stroke="black" stroke-width="5" stroke-linejoin="round"/>
<path d="M315.522 307C313.022 339.5 339.822 399.7 407.022 400.5C423.522 398.5 457.722 390.3 460.522 341.5C462.356 332.667 471.222 314.6 492.022 313C508.689 307.833 535.722 286.9 510.522 244.5" stroke="black" stroke-width="10" stroke-linejoin="round"/>
<path d="M521.022 99C521.022 143.155 485.009 179 440.522 179C396.036 179 360.022 143.155 360.022 99C360.022 54.8448 396.036 19 440.522 19C485.009 19 521.022 54.8448 521.022 99Z" stroke="black" stroke-width="10"/>
<path d="M431.022 392V462.5" stroke="black" stroke-width="10" stroke-linejoin="round"/>
<circle cx="391.022" cy="85" r="6" fill="#0B0B0B"/>
<circle cx="419.022" cy="92" r="6" fill="#0B0B0B"/>
<path d="M398.022 111.345C398.768 111.345 399.438 111.634 400.102 111.832C401.54 112.261 403.06 112.727 404.622 112.909C405.834 113.049 407.118 112.976 408.342 112.976C410.819 112.976 413.398 113.117 415.817 112.71C418 112.343 420.116 111.925 422.206 111.362C424.425 110.765 426.121 109.853 428.022 109" stroke="black" stroke-width="10" stroke-linecap="round"/>
<path d="M384.12 74.9144C383.51 74.9144 385.263 75.3759 385.758 75.7332C387.009 76.6367 388.441 77.2659 389.756 78.0694C391.035 78.8511 392.575 79.2502 393.874 79.8997" stroke="black" stroke-width="10" stroke-linecap="round"/>
<path d="M365.522 392.5V427C362.022 435.5 352.022 453.5 340.022 457.5" stroke="black" stroke-width="10" stroke-linejoin="round"/>
<path d="M413.816 69.4954C414.919 68.3925 416.917 68.8452 418.38 68.8452C420.633 68.8452 422.608 69.6957 424.533 70.796C425.032 71.0807 425.382 71.4284 425.786 71.8316C426.342 72.3876 427.6 72.7871 427.905 73.397" stroke="black" stroke-width="10" stroke-linecap="round"/>
<path d="M507.022 305L523.022 421.5C527.022 427.5 537.322 440.4 546.522 444C537.356 447.667 508.522 455.9 466.522 459.5L452.022 369.5" stroke="black" stroke-width="10" stroke-linejoin="round"/>
<path d="M387.522 163.5C354.189 172.667 287.522 204.8 287.522 260C289.356 283.5 315.422 329.9 405.022 327.5C413.189 325 421.122 316.5 387.522 302.5L428.022 323.5C444.022 326 446.722 308.6 411.522 289L445.522 276C445.356 272 431.422 263.2 377.022 260C371.356 255.667 365.522 244.8 387.522 236" stroke="black" stroke-width="10" stroke-linejoin="round"/>
<path d="M486.022 167.5C494.577 171.935 508.671 182.955 518.156 200M528.022 235.5C519.022 243.833 510.622 263.9 549.022 277.5C566.522 278.833 601.122 270.4 599.522 226C598.356 214.833 593.522 192.7 583.522 193.5C573.522 194.3 570.022 215.5 569.522 226C567.042 220.566 561.799 211.433 556.107 207C553.768 205.178 551.353 204.15 549.022 204.5C544.83 205.129 542.285 211.278 540.813 218.5C539.475 225.059 539.022 232.503 539.022 237.5C536.689 236.167 531.222 233.9 528.022 235.5Z" stroke="black" stroke-width="10" stroke-linejoin="round"/>
<path d="M491.522 219.5C483.689 212 467.522 202.5 441.522 207C434.356 209 420.522 209.5 410.022 236C406.522 241.5 395.722 252 376.522 248" stroke="black" stroke-width="10" stroke-linejoin="round"/>
<path d="M621.522 104L590.022 137.5L592.022 143L453.022 252" stroke="black" stroke-width="10" stroke-linejoin="round"/>
<path d="M617.022 105.5C626.022 107.833 644.522 118.1 646.522 140.5L613.022 164.5L607.522 160.5L553.022 203.5M469.522 271.5L541.022 214.356" stroke="black" stroke-width="10" stroke-linejoin="round"/>
<path d="M437.522 314C455.472 314 470.022 299.449 470.022 281.5C470.022 263.551 455.472 249 437.522 249C426.587 249 416.913 254.401 411.022 262.681" stroke="black" stroke-width="10"/>
<path d="M481.022 231.5L496.522 249L516.522 234.5L500.022 215.5L519.522 200L534.022 219.5" stroke="black" stroke-width="10" stroke-linejoin="round"/>
<path d="M538.522 184.5L553.522 202.5L572.522 188L557.522 170L577.522 154.5L594.522 173" stroke="black" stroke-width="10" stroke-linejoin="round"/>
<path d="M338.022 458C362.317 459.509 415.73 461.622 435.022 458" stroke="black" stroke-width="10" stroke-linejoin="round"/>
<ellipse cx="357.574" cy="488.248" rx="82.0512" ry="84.7747" fill="#E94646" fill-opacity="0.83"/>
<ellipse cx="434.062" cy="510.172" rx="82.0512" ry="84.7747" fill="#E94646" fill-opacity="0.83"/>
<ellipse cx="492.471" cy="494.094" rx="82.0512" ry="84.7747" fill="#E94646" fill-opacity="0.83"/>
<ellipse cx="388.169" cy="409.319" rx="51.4558" ry="54.0804" fill="#E94646" fill-opacity="0.83"/>
<ellipse cx="458.399" cy="360.355" rx="42.4163" ry="43.1182" fill="#E94646" fill-opacity="0.83"/>
<ellipse cx="433.367" cy="307.005" rx="35.4628" ry="36.5408" fill="#E94646" fill-opacity="0.83"/>
<ellipse cx="367.309" cy="498.479" rx="63.9721" ry="65.7735" fill="#F5A732" fill-opacity="0.83"/>
<ellipse cx="425.023" cy="448.053" rx="49.3698" ry="50.4264" fill="#F5A732" fill-opacity="0.83"/>
<ellipse cx="488.995" cy="505.056" rx="49.3698" ry="54.8113" fill="#F5A732" fill-opacity="0.83"/>
<ellipse cx="384.692" cy="524.788" rx="46.5884" ry="46.7723" fill="#F5D632" fill-opacity="0.83"/>
<ellipse cx="430.585" cy="543.79" rx="46.5884" ry="46.7723" fill="#F5D632" fill-opacity="0.83"/>
<ellipse cx="419.46" cy="474.362" rx="35.4628" ry="35.81" fill="#F5D632" fill-opacity="0.83"/>
<ellipse cx="469.525" cy="513.095" rx="41.0256" ry="40.9257" fill="#F5D632" fill-opacity="0.83"/>
<ellipse cx="523.066" cy="329.66" rx="25.0326" ry="25.5786" fill="#E94646" fill-opacity="0.83"/>
<ellipse cx="363.137" cy="256.579" rx="25.0326" ry="25.5786" fill="#E94646" fill-opacity="0.83"/>
<path d="M23.994 252.132L55.1387 202.39L88.0472 200.917L133.528 171.735L114.99 215.344L78.6732 214.954L23.994 252.132Z" stroke="#EB872D" stroke-width="10" stroke-linecap="round" stroke-linejoin="round"/>
<path d="M160.934 256.377L85.0689 278.763C87.4113 295.185 100.446 325.335 133.848 314.558C167.249 303.781 165.822 271.281 160.934 256.377ZM160.934 256.377L236.798 233.992C240.197 250.135 239.832 284.392 211.185 292.274C182.537 300.156 165.747 271.627 160.934 256.377Z" stroke="black" stroke-width="10" stroke-linecap="round" stroke-linejoin="round"/>
<circle cx="146.063" cy="273.483" r="81.5" transform="rotate(1.69353 146.063 273.483)" stroke="black" stroke-width="10"/>
<path d="M161.515 303.087C165.368 303.19 169.492 303.663 173.343 303.138C174.308 303.006 175.226 302.784 176.208 302.787C177.068 302.79 177.93 302.838 178.79 302.864C180.116 302.903 179.969 303.537 180.05 304.859C180.249 308.125 179.977 311.433 178.652 314.417C177.283 317.501 175.84 320.849 173.4 323.263C171.519 325.125 169.932 325.769 167.215 325.528C164.697 325.305 162.788 319.195 162.576 317.314C162.371 315.494 161.687 313.822 161.743 311.905C161.79 310.324 161.591 308.772 161.636 307.252" stroke="black" stroke-width="10" stroke-linecap="round"/>
<path d="M117.814 349.181C85.7667 361.573 29.0311 408.183 58.9366 479.498C66.4898 494.728 98.6626 523.191 166.928 515.205C171.877 517.019 188.025 519.031 213.027 512.567L199.843 501.672L223.628 492.371C214.461 486.598 190.554 474.086 168.258 470.225C174.609 469.746 190.097 465.869 201.247 454.193C212.396 442.517 172.838 450.685 151.665 456.229C140.939 458.079 118.62 457.252 115.154 439.142" stroke="black" stroke-width="10" stroke-linejoin="round"/>
<path d="M119.783 350.24L83.4684 394.186L141.133 406.396L124.945 429.427L140.305 434.383C137.193 438.126 130.628 447.003 129.263 452.565C143.471 434.477 182.027 407.204 222.592 442.819C230.053 449.876 246.082 500.366 232.522 580C240.259 583.397 250.108 595.524 256.022 598.5C231.631 600.113 181.339 602.008 157.433 598.5L157.433 514.925" stroke="black" stroke-width="10" stroke-linejoin="round"/>
<path d="M296.663 441.507L319.221 439.861M423.492 432.252L423.994 415.259C438.283 411.346 468.409 405.267 474.605 412.253C480.801 419.24 476.507 438.154 473.586 446.738C461.972 450.397 436.283 456.44 426.429 451.347C425.282 450.646 423.09 445.846 423.492 432.252ZM423.492 432.252L382.385 435.251" stroke="black" stroke-width="10" stroke-linejoin="round"/>
<path d="M153.121 356.228C159.522 370.924 173.293 404.845 177.159 422.967" stroke="black" stroke-width="10" stroke-linejoin="round"/>
<path d="M183.374 348.118C185.713 364.862 190.85 403.163 192.682 422.426" stroke="black" stroke-width="10" stroke-linejoin="round"/>
<path d="M182.359 348.589L229.025 377.48L216.644 407.127L227.932 414.464C223.228 415.659 212.273 419.604 206.087 425.824C198.354 433.599 227.287 402.44 259.418 415.395C279.321 418.985 306.375 468.306 291.043 563.895" stroke="black" stroke-width="10" stroke-linejoin="round"/>
<path d="M80.34 499.139C77.7156 516.063 80.5518 552.318 112.891 561.945C121.092 564.737 140.974 569.668 159.116 559.494" stroke="black" stroke-width="10" stroke-linejoin="round"/>
<path d="M190.282 351.324C201.14 350.645 238.306 361.348 300.108 409.595C304.355 412.555 317.261 418.206 334.9 417.127L366.83 403.064C369.407 406.142 372.193 414.528 362.725 423.452M362.725 423.452L381.877 435.523C381.641 443.52 378.657 459.839 368.614 461.142C356.06 462.772 362.791 471.975 343.3 471.399C325.308 470.867 323.176 475.306 316.9 467.617C305.673 453.862 317.639 442.628 317.728 439.629C317.799 437.23 332.536 435.065 339.895 434.282L362.725 423.452Z" stroke="black" stroke-width="10" stroke-linejoin="round"/>
<path d="M334.853 435.633C337.949 443.728 343.684 461.806 341.86 469.355" stroke="black" stroke-width="10" stroke-linejoin="round"/>
<path d="M351.964 432.138C355.193 435.735 362.957 446.069 368.188 458.629" stroke="black" stroke-width="10" stroke-linejoin="round"/>
<path d="M316.944 466.118C314.347 469.376 305.181 471.472 289.296 453.795" stroke="black" stroke-width="10" stroke-linejoin="round"/>
<path d="M288.678 559.323L319.603 590.5C300.777 589.943 259.429 588.721 244.635 588.283" stroke="black" stroke-width="10" stroke-linejoin="round"/>
<path d="M141.497 285.797C141.71 285.768 141.901 285.626 142.076 285.515C142.855 285.02 143.63 284.516 144.403 284.012C145.345 283.396 146.249 282.74 147.226 282.177C148.442 281.477 149.696 280.859 150.893 280.134C151.193 279.952 151.55 279.804 151.866 279.658C152.246 279.482 152.561 279.155 152.978 279.064" stroke="black" stroke-width="10" stroke-linecap="round"/>
<path d="M181.226 271.901C178.791 271.829 186.148 272.191 188.454 272.975C188.92 273.134 189.409 273.178 189.875 273.317C190.153 273.4 190.563 273.487 190.851 273.528C191.049 273.556 191.248 273.629 191.446 273.634" stroke="black" stroke-width="10" stroke-linecap="round"/>
<path d="M660.441 460.5C658.108 456.834 644.941 450.171 623.441 452.5C603.441 454.667 567.341 476.9 570.941 574.5C559.275 576 530.341 587.4 515.941 601H579.441" stroke="black" stroke-width="10" stroke-linejoin="round"/>
<path d="M749.422 262.335L806.526 214L804.142 289.233L783.477 278.021L773.752 299.316L760.024 292.9L769.027 272.131L749.422 262.335Z" stroke="#D3BAFB" stroke-width="10" stroke-linejoin="round"/>
<circle cx="685.941" cy="312" r="6" fill="#0B0B0B"/>
<circle cx="708.941" cy="312" r="6" fill="#0B0B0B"/>
<path d="M473.869 490.05L471.722 473.8C457.47 471.673 427.633 469.273 422.3 476.683C416.968 484.094 422.983 501.757 426.657 509.662C438.288 511.85 463.815 514.722 472.883 508.711C473.927 507.907 475.587 503.051 473.869 490.05ZM473.869 490.05L534.523 487" stroke="black" stroke-width="10" stroke-linejoin="round"/>
<path d="M688.175 379.85C678.791 380.255 647.987 394.147 599.843 446.476C596.498 449.731 585.998 456.412 570.755 457.093L541.941 446.703C540.042 449.908 538.498 458.229 547.523 465.873M547.523 465.873L532.313 479.325C533.324 486.978 537.533 502.352 546.28 502.626C557.215 502.968 552.371 512.457 569.034 510.006C572.171 509.545 574.764 509.346 576.941 509.254M547.523 465.873L568.204 474.046C574.597 474.081 587.459 474.725 587.762 477.021" stroke="black" stroke-width="10" stroke-linejoin="round"/>
<path d="M573.252 474.638C571.351 482.829 568.145 501.003 570.523 508.17" stroke="black" stroke-width="10" stroke-linejoin="round"/>
<path d="M558.252 472.947C555.852 476.71 550.25 487.376 547.041 499.93" stroke="black" stroke-width="10" stroke-linejoin="round"/>
<circle cx="715.441" cy="302.5" r="81.5" stroke="black" stroke-width="10"/>
<path d="M684.053 329.731C683.268 329.829 684.99 331.515 685.262 331.686C686.351 332.372 687.595 332.655 688.799 333.088C692.163 334.299 696.313 334.121 699.847 333.885C702.425 333.713 704.847 332.931 707.255 332.098C708.119 331.798 709.299 331.559 709.75 330.657" stroke="black" stroke-width="10" stroke-linecap="round"/>
<path d="M764.441 368C792.775 393.5 835.641 460.5 780.441 524.5C770.275 538 738.241 563.7 691.441 558.5C684.441 557.667 674.641 553.4 691.441 543C689.275 543.833 679.441 545 657.441 543C656.108 539.833 661.041 529.6 691.441 514C680.108 513.5 657.441 510.8 657.441 504C657.441 497.2 693.441 496.167 711.441 496.5C720.108 496.667 737.941 490.5 752.441 470L755.941 445.5" stroke="black" stroke-width="10" stroke-linejoin="round"/>
<path d="M782.522 351.5C790.189 351.167 806.522 356.1 810.522 378.5C814.522 400.9 827.856 405.5 834.022 405C828.522 412 808.122 422 792.522 408" stroke="black" stroke-width="10" stroke-linejoin="round"/>
<path d="M786.441 525C788.108 541.833 782.641 577.7 747.441 586.5C740.108 587.833 719.141 587 693.941 573L698.441 560L680.941 611H568.941C573.941 605.333 589.741 592.5 612.941 586.5C615.608 545.667 630.041 463.3 666.441 460.5C680.108 455.833 709.841 456.6 719.441 497" stroke="black" stroke-width="10" stroke-linejoin="round"/>
<path d="M661.941 412C658.774 424.667 651.841 450.2 649.441 451" stroke="black" stroke-width="10" stroke-linejoin="round"/>
</svg>
