<svg width="271" height="245" viewBox="0 0 271 245" fill="none" xmlns="http://www.w3.org/2000/svg">
<circle cx="204.38" cy="85.5" r="61.5" fill="white" stroke="black" stroke-width="10"/>
<path d="M230.38 145C242.547 150.667 264.78 170.6 256.38 205C251.047 227.333 218.88 264 194.88 216" stroke="black" stroke-width="10" stroke-linejoin="round"/>
<path d="M158.88 194C156.88 164.8 180.714 162.167 192.88 164.5C195.975 165.398 198.334 166.969 200.133 169C201.459 170.497 202.48 172.244 203.267 174.155C205.688 180.04 205.88 187.485 205.88 194C205.88 221 186.88 223 181.38 221C163.38 220.2 158.88 202.667 158.88 194Z" fill="white"/>
<path d="M200.133 169C206.702 181.272 213.894 184.806 222.811 189M192.88 164.5C180.714 162.167 156.88 164.8 158.88 194C158.88 202.667 163.38 220.2 181.38 221C186.88 223 205.88 221 205.88 194C205.88 182.5 205.28 168.1 192.88 164.5Z" stroke="black" stroke-width="10" stroke-linejoin="round"/>
<path d="M171.569 98.4119C171.569 100.491 171.282 102.632 172.169 104.407" stroke="black" stroke-width="10" stroke-linecap="round"/>
<path d="M198.979 99.9185C198.979 100.92 198.923 101.939 198.979 102.938C199.033 103.91 199.842 104.585 199.842 105.526" stroke="black" stroke-width="10" stroke-linecap="round"/>
<path d="M197.104 126.472C197.97 126.784 198.701 127.359 199.601 127.621C200.524 127.89 201.454 127.985 202.377 128.216C203.832 128.58 205.674 128.962 207.164 128.523C209.089 127.957 210.906 127.121 212.428 125.768C213.148 125.127 214.526 124.098 214.945 123.26" stroke="black" stroke-width="10" stroke-linecap="round"/>
<path d="M15.3805 25.0001C42.9805 12.2001 60.8805 36.0002 66.3805 49.5002C66.8606 51.6391 67.099 53.6625 67.1337 55.5728C67.3063 65.1011 62.408 71.8133 57.1487 76L70.3804 97.5C90.8874 87.5 103.058 104.567 108.18 112.9C115.78 137.7 101.214 139.5 93.3804 137.5C93.3804 126 83.3804 117.5 83.3804 117.5C77.7137 118.333 73.5805 119.9 66.3805 125.5C57.3805 132.5 73.3804 139 72.3804 144.5C71.5804 148.9 63.3804 148.667 59.3804 148C26.1804 132 39.8804 114 50.8804 107L36.2196 81C26.33 79.2273 19.1841 73.3129 15.3805 70C-3.41955 48.4 7.54712 31.0001 15.3805 25.0001Z" fill="white"/>
<path d="M145.88 107C137.547 97.1667 114.88 85 97.3805 85C81.3805 78.0001 67.1805 68.7002 66.3805 49.5002M66.3805 49.5002C60.8805 36.0002 42.9805 12.2001 15.3805 25.0001C7.54712 31.0001 -3.41955 48.4 15.3805 70C19.1841 73.3129 26.33 79.2273 36.2196 81M66.3805 49.5002C69.2558 62.3082 63.4624 70.974 57.1487 76M47.8804 81C43.6595 81.7387 39.7634 81.6352 36.2196 81M47.8804 81H36.2196M47.8804 81C50.3061 80.307 53.8006 78.6653 57.1487 76M36.2196 81L50.8804 107C39.8804 114 26.1804 132 59.3804 148C63.3804 148.667 71.5804 148.9 72.3804 144.5C73.3804 139 57.3805 132.5 66.3805 125.5C73.5805 119.9 77.7137 118.333 83.3804 117.5C83.3804 117.5 93.3804 126 93.3804 137.5C101.214 139.5 115.78 137.7 108.18 112.9C103.058 104.567 90.8874 87.5 70.3804 97.5L57.1487 76" stroke="black" stroke-width="10" stroke-linejoin="round"/>
<path d="M150 21.4059L134.204 52.024L159.958 59.689" stroke="#4A2FF0" stroke-width="8" stroke-linecap="round" stroke-linejoin="round"/>
<path d="M194.234 8.428L217.799 13.4416L201.264 35.7687" stroke="#4A2FF0" stroke-width="8" stroke-linecap="round" stroke-linejoin="round"/>
<path d="M181.665 4.29462L161.409 42.6209" stroke="#4A2FF0" stroke-width="8" stroke-linecap="round" stroke-linejoin="round"/>
<path d="M25.7779 48.3398C14.393 48.3398 12.8711 60.1744 12.8711 68.91" stroke="black" stroke-width="10" stroke-linecap="round"/>
<path d="M34.248 60.0366C29.1068 60.9714 27.9065 74.8144 32.2313 76.9768" stroke="black" stroke-width="10" stroke-linecap="round"/>
<path d="M182.273 183.054C175.532 183.054 166.013 181.429 161.702 187.894" stroke="black" stroke-width="10" stroke-linecap="round"/>
<path d="M179.449 202.415C176.088 202.415 172.727 202.415 169.366 202.415C167.006 202.415 165.255 204.268 163.316 205.238" stroke="black" stroke-width="10" stroke-linecap="round"/>
</svg>
