<svg width="65" height="66" viewBox="0 0 65 66" fill="none" xmlns="http://www.w3.org/2000/svg">
<rect x="1.16063" y="1.16063" width="62.5339" height="63.1039" rx="31.2669" stroke="black" stroke-width="2.32126"/>
<path d="M14.7634 37.143C14.9677 36.8737 15.1116 36.5673 15.1951 36.2237C15.2787 35.8709 15.3205 35.4577 15.3205 34.9842V29.6917C15.3205 29.2182 15.2787 28.8096 15.1951 28.4661C15.1116 28.1133 14.9677 27.8022 14.7634 27.5329V27.4633H18.6631V27.5329C18.4588 27.8022 18.3149 28.1133 18.2314 28.4661C18.1478 28.8096 18.106 29.2182 18.106 29.6917V34.9842C18.106 35.4577 18.1478 35.8709 18.2314 36.2237C18.3149 36.5673 18.4588 36.8737 18.6631 37.143V37.2126H14.7634V37.143ZM24.6574 37.4215C23.3946 37.4215 22.4058 37.1244 21.6908 36.5302C20.9759 35.9266 20.6184 35.0863 20.6184 34.0093V29.6917C20.6184 29.2182 20.5766 28.8096 20.4931 28.4661C20.4095 28.1133 20.2656 27.8022 20.0613 27.5329V27.4633H23.961V27.5329C23.7567 27.8022 23.6128 28.1133 23.5293 28.4661C23.4457 28.8096 23.4039 29.2182 23.4039 29.6917V34.0093C23.4039 34.8449 23.6035 35.4856 24.0028 35.9313C24.4021 36.3677 24.9684 36.5859 25.702 36.5859C26.4355 36.5859 27.0019 36.3677 27.4011 35.9313C27.8004 35.4856 28 34.8449 28 34.0093V29.831C28 29.4039 27.9118 28.9907 27.7354 28.5914C27.5683 28.1922 27.3547 27.844 27.0947 27.5469V27.4633H29.3928V27.5469C29.1328 27.844 28.9146 28.1922 28.7382 28.5914C28.571 28.9907 28.4875 29.4039 28.4875 29.831V34.0093C28.4875 35.1142 28.1718 35.9591 27.5404 36.5441C26.9183 37.129 25.9573 37.4215 24.6574 37.4215ZM35.0714 37.4215C34.0593 37.4215 33.168 37.2265 32.3973 36.8366C31.6267 36.4466 31.0231 35.8802 30.5867 35.1374C30.1596 34.3853 29.9461 33.4986 29.9461 32.4772C29.9461 31.428 30.1828 30.5088 30.6564 29.7196C31.1392 28.9303 31.8031 28.3222 32.648 27.8951C33.4929 27.468 34.44 27.2544 35.4892 27.2544C36.0742 27.2544 36.6406 27.3194 37.1884 27.4494C37.7455 27.5794 38.1865 27.7233 38.5115 27.8811V31.0148H38.3722C37.9544 29.9842 37.453 29.1718 36.8681 28.5775C36.2924 27.974 35.6889 27.6722 35.0575 27.6722C34.6118 27.6722 34.2033 27.7976 33.8319 28.0483C33.4604 28.299 33.1587 28.7029 32.9266 29.26C32.7037 29.8078 32.5923 30.5088 32.5923 31.363C32.5923 32.4122 32.7594 33.3454 33.0937 34.1625C33.4372 34.9795 33.8783 35.6109 34.4168 36.0566C34.9646 36.5023 35.5403 36.7251 36.1438 36.7251H36.492V34.4271C36.492 33.9628 36.4317 33.5543 36.311 33.2015C36.1903 32.8486 35.9953 32.5376 35.726 32.2683V32.1987H39.5561V32.2683C39.3518 32.5376 39.2079 32.8486 39.1243 33.2015C39.0408 33.545 38.999 33.9536 38.999 34.4271V36.168C38.5162 36.5302 37.9173 36.8319 37.2023 37.0733C36.4967 37.3055 35.7864 37.4215 35.0714 37.4215ZM39.629 37.143C40.2789 36.493 40.7525 35.7827 41.0496 35.012L44.0162 27.4633H45.8964L48.8212 34.9146C48.9976 35.3788 49.1833 35.7827 49.3783 36.1263C49.5825 36.4698 49.8379 36.8087 50.1443 37.143V37.2126H45.6178V37.143C45.8964 36.753 46.0357 36.3352 46.0357 35.8895C46.0357 35.5831 45.966 35.2581 45.8267 34.9146L45.4786 34.0789H41.927L41.6485 34.7474C41.5278 35.0538 41.4674 35.3509 41.4674 35.6388C41.4674 36.1959 41.667 36.6973 42.0663 37.143V37.2126H39.629V37.143ZM43.6958 29.4549L42.0663 33.6611H45.3393L43.6958 29.4549Z" fill="black"/>
</svg>
