<svg width="17" height="16" viewBox="0 0 17 16" fill="none" xmlns="http://www.w3.org/2000/svg">
<path d="M7.66124 2.66009L10.529 5.53301C11.0008 6.00568 10.6661 6.81287 9.99821 6.81287H1.9375C1.28166 6.81287 0.75 7.34453 0.75 8.00037C0.75 8.6562 1.28166 9.18787 1.9375 9.18787H9.99821C10.6661 9.18787 11.0008 9.99506 10.529 10.4677L7.66124 13.3406C7.19913 13.8036 7.19946 14.5534 7.66199 15.0159C8.12481 15.4787 8.87519 15.4787 9.33801 15.0159L15.4697 8.88425C15.9578 8.39609 15.9578 7.60464 15.4697 7.11648L9.33801 0.984822C8.87519 0.522002 8.12481 0.522003 7.66199 0.984823C7.19946 1.44735 7.19913 2.19715 7.66124 2.66009Z" fill="white" stroke="white" stroke-width="0.5"/>
</svg>
