<svg width="25" height="20" viewBox="0 0 25 20" fill="none" xmlns="http://www.w3.org/2000/svg">
<path d="M21.1532 2.05682C19.5698 1.3187 17.8554 0.782976 16.0697 0.473443C16.054 0.472943 16.0385 0.475881 16.0241 0.482052C16.0097 0.488222 15.9968 0.497476 15.9863 0.509159C15.7721 0.902027 15.522 1.41395 15.3554 1.80681C13.4613 1.52109 11.535 1.52109 9.64094 1.80681C9.47427 1.40204 9.22426 0.902027 8.99806 0.509159C8.98616 0.485349 8.95044 0.473443 8.91473 0.473443C7.12896 0.782976 5.42653 1.3187 3.83125 2.05682C3.81935 2.05682 3.80744 2.06873 3.79554 2.08063C0.557354 6.926 -0.335528 11.6404 0.10496 16.3072C0.10496 16.331 0.116865 16.3548 0.140675 16.3667C2.28359 17.9382 4.34317 18.8906 6.37894 19.5216C6.41466 19.5335 6.45037 19.5216 6.46228 19.4978C6.93848 18.843 7.36706 18.1525 7.73612 17.4263C7.75993 17.3787 7.73612 17.331 7.6885 17.3191C7.00991 17.0572 6.36704 16.7477 5.73607 16.3905C5.68845 16.3667 5.68845 16.2953 5.72416 16.2596C5.85512 16.1643 5.98607 16.0572 6.11703 15.962C6.14084 15.9382 6.17656 15.9382 6.20037 15.9501C10.2957 17.8192 14.7125 17.8192 18.7602 15.9501C18.784 15.9382 18.8198 15.9382 18.8436 15.962C18.9745 16.0691 19.1055 16.1644 19.2364 16.2715C19.2841 16.3072 19.2841 16.3786 19.2245 16.4025C18.6055 16.7715 17.9507 17.0691 17.2721 17.331C17.2245 17.343 17.2126 17.4025 17.2245 17.4382C17.6054 18.1644 18.034 18.8549 18.4983 19.5097C18.534 19.5216 18.5698 19.5335 18.6055 19.5216C20.6531 18.8906 22.7127 17.9382 24.8556 16.3667C24.8794 16.3548 24.8914 16.331 24.8914 16.3072C25.4152 10.9142 24.0223 6.23551 21.2008 2.08063C21.1889 2.06873 21.177 2.05682 21.1532 2.05682ZM8.35519 13.4619C7.12896 13.4619 6.10512 12.3309 6.10512 10.938C6.10512 9.54512 7.10515 8.41414 8.35519 8.41414C9.61713 8.41414 10.6172 9.55703 10.6052 10.938C10.6052 12.3309 9.60522 13.4619 8.35519 13.4619ZM16.653 13.4619C15.4268 13.4619 14.403 12.3309 14.403 10.938C14.403 9.54512 15.403 8.41414 16.653 8.41414C17.915 8.41414 18.915 9.55703 18.9031 10.938C18.9031 12.3309 17.915 13.4619 16.653 13.4619Z" fill="black"/>
</svg>
