<svg width="32" height="32" viewBox="0 0 32 32" fill="none" xmlns="http://www.w3.org/2000/svg">
<g clip-path="url(#clip0_1083_2550)">
<g clip-path="url(#clip1_1083_2550)">
<path d="M10.96 4H21.04C24.88 4 28 7.12 28 10.96V21.04C28 22.8859 27.2667 24.6562 25.9615 25.9615C24.6562 27.2667 22.8859 28 21.04 28H10.96C7.12 28 4 24.88 4 21.04V10.96C4 9.11409 4.73328 7.34379 6.03854 6.03854C7.34379 4.73328 9.11409 4 10.96 4ZM10.72 6.4C9.57427 6.4 8.47546 6.85514 7.6653 7.6653C6.85514 8.47546 6.4 9.57427 6.4 10.72V21.28C6.4 23.668 8.332 25.6 10.72 25.6H21.28C22.4257 25.6 23.5245 25.1449 24.3347 24.3347C25.1449 23.5245 25.6 22.4257 25.6 21.28V10.72C25.6 8.332 23.668 6.4 21.28 6.4H10.72ZM22.3 8.2C22.6978 8.2 23.0794 8.35804 23.3607 8.63934C23.642 8.92064 23.8 9.30218 23.8 9.7C23.8 10.0978 23.642 10.4794 23.3607 10.7607C23.0794 11.042 22.6978 11.2 22.3 11.2C21.9022 11.2 21.5206 11.042 21.2393 10.7607C20.958 10.4794 20.8 10.0978 20.8 9.7C20.8 9.30218 20.958 8.92064 21.2393 8.63934C21.5206 8.35804 21.9022 8.2 22.3 8.2ZM16 10C17.5913 10 19.1174 10.6321 20.2426 11.7574C21.3679 12.8826 22 14.4087 22 16C22 17.5913 21.3679 19.1174 20.2426 20.2426C19.1174 21.3679 17.5913 22 16 22C14.4087 22 12.8826 21.3679 11.7574 20.2426C10.6321 19.1174 10 17.5913 10 16C10 14.4087 10.6321 12.8826 11.7574 11.7574C12.8826 10.6321 14.4087 10 16 10ZM16 12.4C15.0452 12.4 14.1295 12.7793 13.4544 13.4544C12.7793 14.1295 12.4 15.0452 12.4 16C12.4 16.9548 12.7793 17.8705 13.4544 18.5456C14.1295 19.2207 15.0452 19.6 16 19.6C16.9548 19.6 17.8705 19.2207 18.5456 18.5456C19.2207 17.8705 19.6 16.9548 19.6 16C19.6 15.0452 19.2207 14.1295 18.5456 13.4544C17.8705 12.7793 16.9548 12.4 16 12.4Z" fill="black"/>
</g>
</g>
<defs>
<clipPath id="clip0_1083_2550">
<rect width="24" height="24" fill="white" transform="translate(4 4)"/>
</clipPath>
<clipPath id="clip1_1083_2550">
<rect width="24" height="24" fill="white" transform="translate(4 4)"/>
</clipPath>
</defs>
</svg>
