<svg width="24" height="24" viewBox="0 0 24 24" fill="none" xmlns="http://www.w3.org/2000/svg">
<g clip-path="url(#clip0_1083_2557)">
<path d="M5.03673 2.50111C5.03639 3.16412 4.77075 3.79983 4.29822 4.26841C3.8257 4.73699 3.18502 5.00005 2.5171 4.99972C1.84919 4.99939 1.20877 4.7357 0.736721 4.26665C0.264673 3.7976 -0.00033364 3.16162 3.15251e-07 2.49861C0.000334271 1.83561 0.265981 1.19989 0.738502 0.731309C1.21102 0.262728 1.85171 -0.000331189 2.51962 3.12934e-07C3.18753 0.000331815 3.82796 0.264027 4.30001 0.733076C4.77205 1.20213 5.03706 1.83811 5.03673 2.50111ZM5.11228 6.85087H0.0755511V22.5H5.11228V6.85087ZM13.0703 6.85087H8.05876V22.5H13.0199V14.288C13.0199 9.71321 19.0262 9.28824 19.0262 14.288V22.5H24V12.5881C24 4.87598 15.1102 5.16346 13.0199 8.95075L13.0703 6.85087Z" fill="black"/>
</g>
<defs>
<clipPath id="clip0_1083_2557">
<rect width="24" height="24" fill="white"/>
</clipPath>
</defs>
</svg>
